<mxfile host="app.diagrams.net" modified="2023-11-05T14:04:55.992Z" agent="Mozilla/5.0 (X11; Linux x86_64) AppleWebKit/537.36 (KHTML, like Gecko) Chrome/116.0.0.0 Safari/537.36" version="22.0.8" etag="C-ykM9IL6pQfichPlKU7" type="github">
  <diagram name="Page-1" id="gMqStzkBYnFFJB2poFFK">
    <mxGraphModel>
      <root>
        <mxCell id="0" />
        <mxCell id="1" parent="0" />
      </root>
    </mxGraphModel>
  </diagram>
</mxfile>
